<svg width="484" height="490" viewBox="0 0 484 490" fill="none" xmlns="http://www.w3.org/2000/svg">
<path d="M327.5 406.6C304.6 406.6 286.8 425.4 286.8 448.3C286.8 471.2 305.6 490 327.5 490C349.4 490 368.2 471.2 368.2 448.3C368.2 425.4 349.4 406.6 327.5 406.6ZM327.5 469.1C316 469.1 307.7 459.7 307.7 448.2C307.7 436.7 317.1 427.3 327.5 427.3C337.9 427.3 347.3 436.7 347.3 448.2C347.3 459.7 337.9 469.1 327.5 469.1Z" fill="#01DEF3"/>
<path d="M105.4 406.6C82.5 406.6 64.7 425.4 64.7 448.3C64.7 471.2 83.5 490 105.4 490C128.3 490 146.1 471.2 146.1 448.3C146.1 425.4 127.3 406.6 105.4 406.6V406.6ZM105.4 469.1C93.9 469.1 85.6 459.7 85.6 448.2C85.6 436.7 95 427.3 105.4 427.3C116.9 427.3 125.2 436.7 125.2 448.2C125.2 459.8 115.9 469.1 105.4 469.1V469.1Z" fill="#01DEF3"/>
<path d="M425.5 0L409.3 63.6H0.0999756L75.6 287.3C50.3 291 31.4 312.4 31.4 339.9C31.4 370.1 54.3 394.1 83.5 394.1H367.1V374.3H83.5C65.8 374.3 52.2 359.7 52.2 340.9C52.2 322.1 66.8 307.5 83.5 307.5H367.1H368.1L442.1 20.8H483.8V0H425.5V0ZM352.5 286.7H97.1L29.3 84.4H403.6L352.5 286.7Z" fill="#01DEF3"/>
<path d="M153.4 133.4H132.5V251.2H153.4V133.4Z" fill="#01DEF3"/>
<path d="M227.5 133.4H206.6V251.2H227.5V133.4Z" fill="#01DEF3"/>
<path d="M301.5 133.4H280.6V251.2H301.5V133.4Z" fill="#01DEF3"/>
</svg>
